<?xml version="1.0" encoding="UTF-8"?>
<svg data-name="Layer 1" version="1.1" viewBox="0 0 200 165" xmlns="http://www.w3.org/2000/svg">
 <rect class="cls-1" width="200" height="165" rx="20" fill="#7100d4"/>
 <g transform="translate(2.5555)" fill="#fff">
  <path d="m115.5 14.939c-12.215 10.353-24.644 20.877-33.67 34.233-7.3009-3.252-11.382-6.8055-18.744-10.682 0.50066 11.922-4.9642 38.569-4.9642 38.569s-12.955-5.4095-16.354-8.2846c-7.1459 35.842 7.3023 68.727 19.967 73.443-11.526-19.366-9.2471-39.688-10.787-56.442 3.3536 0.93822 15.229 6.4163 15.229 6.4163s7.2669-24.952 8.3597-33.839c1.6849-0.83675 10.694 7.4329 10.694 7.4329s21.277-30.199 23.508-27.72c1.1816 14.458 11.665 28.146 13.176 41.554 5.3161-2.0731 10.657-5.2032 15.973-7.2763 6.0881 9.5994 7.5415 22.179 4.1624 71.608 8.0832-18.769 11.831-33.943 12.875-51.47 0.72046-12.096-3.2594-26.091-5.9065-38.331-4.9842 1.9436-12.689 4.6965-17.673 6.6401-6.5808-16.829-13.355-30.024-15.847-45.854z" color="#000000" stroke-width="1.3002"/>
  <path d="m98.228 66.924s-1.4467 6.7169-5.0724 12.81c-7.2749 12.227-9.3068 14.831-13.028 21.832-4.3141 8.1158-9.8965 16.788-8.3967 25.662 1.3882 8.2137 7.4565 16.676 15.147 19.878 11.34 4.7209 28.232 4.2479 36.536-4.8036 6.7573-7.3658 7.1182-21.802 1.3389-29.957-4.4384-6.2635-9.9054-14.633-14.355-22.258-4.396-7.5327-12.169-23.163-12.169-23.163zm-12.355 53.247c1.527 4.5095 2.8869 6.8857 5.53 9.3676 3.3063 3.1046 6.1651 4.9047 12.128 6.1667l-0.22516 6.6704c-4.0024-0.46856-12.785-1.8289-17.263-5.9513-4.1852-3.8529-7.0707-9.5851-6.8737-15.619z"/>
 </g>
</svg>
