<?xml version="1.0" encoding="UTF-8"?>
<svg width="609.52" height="165" data-name="Layer 1" version="1.1" viewBox="0 0 609.52 165" xmlns="http://www.w3.org/2000/svg">
 <g transform="translate(0 -2.9699)" fill="#344845">
  <path class="st2" d="m443.01 60.158h13.424l13.274 25.124c1.125 2.1748 2.625 6 3.8252 9h0.2998c-0.14941-2.8506-0.52441-6.9004-0.52441-9.8252v-24.299h10.274v50.623h-13.125l-13.799-25.049c-1.2754-2.25-2.625-5.5498-3.6748-8.25h-0.30078c0.22559 2.8496 0.60059 6.2246 0.60059 9v24.299h-10.274z"/>
  <path class="st2" d="m575.92 60.158h12.524v41.323h21.074v9.2998h-33.599z"/>
  <path class="st2" d="m542.43 60.158h12.674l17.1 50.623h-12.675l-3.1494-9.5996h-16.949l-3.0752 9.5996h-10.949zm0 31.724h10.874l-3.4492-10.649c-1.2002-3.5996-1.7256-8.6992-1.7256-8.6992h-0.2998s-0.75 5.1748-1.875 8.624z"/>
  <path class="st2" d="m222.75 60.158h33.523v9.2998h-20.999v10.874h17.624v9.2998h-17.624v11.85h21.749v9.2998h-34.273z"/>
  <path class="st2" d="m490.47 60.158h40.423v9.2998h-14.099v41.323h-12.524v-41.323h-13.8z"/>
  <path class="st2" d="m303.38 60.158h33.523v9.2998h-20.999v10.874h17.624v9.2998h-17.624v11.85h21.749v9.2998h-34.273z"/>
  <path class="st2" d="m402 60.158h33.523v9.2998h-20.999v10.874h17.624v9.2998h-17.624v11.85h21.749v9.2998h-34.273z"/>
  <path class="st2" d="m264.74 60.158h12.524v41.323h21.074v9.2998h-33.599z"/>
  <path class="st2" d="m343.74 60.158h15.524l8.249 22.574c1.2754 3.5996 2.1748 7.2744 2.1748 7.2744h0.30078s0.89941-3.8242 2.1748-7.2744l8.0244-22.574h14.774v50.623h-11.699v-25.574c0-3 0.82422-10.05 0.82422-10.05h-0.2998s-1.5 7.125-2.4746 9.6748l-9.75 25.949h-5.625l-9.8242-25.949c-1.0498-2.6992-2.3252-9.2246-2.3252-9.2246h-0.2998s0.52539 6.5996 0.52539 9.5996v25.574h-10.274z"/>
 </g>
 <rect class="cls-1" width="200" height="165" rx="20" fill="#7100d4"/>
 <g transform="translate(2.5555)" fill="#fff">
  <path d="m115.5 14.939c-12.215 10.353-24.644 20.877-33.67 34.233-7.3009-3.252-11.382-6.8055-18.744-10.682 0.50066 11.922-4.9642 38.569-4.9642 38.569s-12.955-5.4095-16.354-8.2846c-7.1459 35.842 7.3023 68.727 19.967 73.443-11.526-19.366-9.2471-39.688-10.787-56.442 3.3536 0.93822 15.229 6.4163 15.229 6.4163s7.2669-24.952 8.3597-33.839c1.6849-0.83675 10.694 7.4329 10.694 7.4329s21.277-30.199 23.508-27.72c1.1816 14.458 11.665 28.146 13.176 41.554 5.3161-2.0731 10.657-5.2032 15.973-7.2763 6.0881 9.5994 7.5415 22.179 4.1624 71.608 8.0832-18.769 11.831-33.943 12.875-51.47 0.72046-12.096-3.2594-26.091-5.9065-38.331-4.9842 1.9436-12.689 4.6965-17.673 6.6401-6.5808-16.829-13.355-30.024-15.847-45.854z" color="#000000" stroke-width="1.3002"/>
  <path d="m98.228 66.924s-1.4467 6.7169-5.0724 12.81c-7.2749 12.227-9.3068 14.831-13.028 21.832-4.3141 8.1158-9.8965 16.788-8.3967 25.662 1.3882 8.2137 7.4565 16.676 15.147 19.878 11.34 4.7209 28.232 4.2479 36.536-4.8036 6.7573-7.3658 7.1182-21.802 1.3389-29.957-4.4384-6.2635-9.9054-14.633-14.355-22.258-4.396-7.5327-12.169-23.163-12.169-23.163zm-12.355 53.247c1.527 4.5095 2.8869 6.8857 5.53 9.3676 3.3063 3.1046 6.1651 4.9047 12.128 6.1667l-0.22516 6.6704c-4.0024-0.46856-12.785-1.8289-17.263-5.9513-4.1852-3.8529-7.0707-9.5851-6.8737-15.619z"/>
 </g>
</svg>
