<?xml version="1.0" encoding="UTF-8"?>
<svg width="609.52" height="165" data-name="Layer 1" version="1.1" viewBox="0 0 609.52 165" xmlns="http://www.w3.org/2000/svg">
 <g>
  <path class="st2" d="m443.01 57.188h13.424l13.274 25.124c1.125 2.1748 2.625 6 3.8252 9h0.2998c-0.14941-2.8506-0.52441-6.9004-0.52441-9.8252v-24.299h10.274v50.623h-13.125l-13.799-25.049c-1.2754-2.25-2.625-5.5498-3.6748-8.25h-0.30078c0.22559 2.8496 0.60059 6.2246 0.60059 9v24.299h-10.274z"/>
  <path class="st2" d="m575.92 57.188h12.524v41.323h21.074v9.2998h-33.599z"/>
  <path class="st2" d="m542.43 57.188h12.674l17.1 50.623h-12.675l-3.1494-9.5996h-16.949l-3.0752 9.5996h-10.949zm0 31.724h10.874l-3.4492-10.649c-1.2002-3.5996-1.7256-8.6992-1.7256-8.6992h-0.2998s-0.75 5.1748-1.875 8.624z"/>
  <path class="st2" d="m222.75 57.188h33.523v9.2998h-20.999v10.874h17.624v9.2998h-17.624v11.85h21.749v9.2998h-34.273z"/>
  <path class="st2" d="m490.47 57.188h40.423v9.2998h-14.099v41.323h-12.524v-41.323h-13.8z"/>
  <path class="st2" d="m303.38 57.188h33.523v9.2998h-20.999v10.874h17.624v9.2998h-17.624v11.85h21.749v9.2998h-34.273z"/>
  <path class="st2" d="m402 57.188h33.523v9.2998h-20.999v10.874h17.624v9.2998h-17.624v11.85h21.749v9.2998h-34.273z"/>
  <path class="st2" d="m264.74 57.188h12.524v41.323h21.074v9.2998h-33.599z"/>
  <path class="st2" d="m343.74 57.188h15.524l8.249 22.574c1.2754 3.5996 2.1748 7.2744 2.1748 7.2744h0.30078s0.89941-3.8242 2.1748-7.2744l8.0244-22.574h14.774v50.623h-11.699v-25.574c0-3 0.82422-10.05 0.82422-10.05h-0.2998s-1.5 7.125-2.4746 9.6748l-9.75 25.949h-5.625l-9.8242-25.949c-1.0498-2.6992-2.3252-9.2246-2.3252-9.2246h-0.2998s0.52539 6.5996 0.52539 9.5996v25.574h-10.274z"/>
  <path class="cls-1" d="m20 0c-11.08 0-20 8.92-20 20v125c0 11.08 8.92 20 20 20h160c11.08 0 20-8.92 20-20v-125c0-11.08-8.92-20-20-20h-160zm98.059 14.939c2.4918 15.83 9.2669 29.025 15.848 45.854 4.9842-1.9436 12.688-4.697 17.672-6.6406 2.6471 12.24 6.6267 26.235 5.9063 38.33-1.044 17.527-4.7918 32.702-12.875 51.471 3.379-49.429 1.926-62.01-4.1621-71.609-5.3161 2.0731-10.657 5.2043-15.973 7.2773-1.5109-13.408-11.996-27.097-13.178-41.555-2.2311-2.4787-23.508 27.721-23.508 27.721 1e-6 0-9.0085-8.2703-10.693-7.4336-1.0928 8.8868-8.3594 33.838-8.3594 33.838s-11.877-5.4778-15.23-6.416c1.5397 16.754-0.73912 37.078 10.787 56.443-12.665-4.7168-27.113-37.602-19.967-73.443 3.3992 2.8751 16.355 8.2832 16.355 8.2832s5.4635-26.646 4.9629-38.568c7.3614 3.8762 11.443 7.4296 18.744 10.682 9.0253-13.356 21.455-23.879 33.67-34.232zm-17.275 51.984s7.772 15.631 12.168 23.164c4.4498 7.625 9.9171 15.994 14.355 22.258 5.7793 8.1557 5.4194 22.591-1.3379 29.957-8.3038 9.0515-25.195 9.5237-36.535 4.8027-7.6904-3.2016-13.76-11.663-15.148-19.877-1.4999-8.8743 4.0824-17.546 8.3965-25.662 3.7216-7.0012 5.7544-9.6052 13.029-21.832 3.6257-6.0936 5.0723-12.811 5.0723-12.811zm-12.355 53.246-6.7031 0.63477c-0.19693 6.0339 2.6878 11.766 6.873 15.619 4.4779 4.1223 13.261 5.4826 17.264 5.9512l0.22461-6.6699c-5.9626-1.262-8.8226-3.0634-12.129-6.168-2.643-2.4818-4.0023-4.8577-5.5293-9.3672z"/>
 </g>
</svg>
